# xmcd CD database file
#
# Track frame offsets:
#	150
#	26415
#	48722
#	67925
#	96825
#	118382
#	144405
#	163607
#	191465
#	215902
#	242595
#
# Disc length: 3568 seconds
#
# Revision: 4
# Processed by: cddbd v1.5PL3 Copyright (c) Steve Scherf et al.
# Submitted via: CDex 1.50
#
DISCID=9f0dee0b
DTITLE=KAB. - 散歩道
DYEAR=2002
DGENRE=New Age
TTITLE0=散歩道
TTITLE1=Ｌｏｎｇ　Ｖａｃａｔｉｏｎ
TTITLE2=白昼夢
TTITLE3=桜並木
TTITLE4=１９の夏（夕暮れ回想編）
TTITLE5=ヤキモチ焼きの彼女
TTITLE6=ちいさなひざの恋物語
TTITLE7=６月の花嫁
TTITLE8=無口な鳥
TTITLE9=都会の片隅
TTITLE10=君の嘘
EXTD=YEAR: 2002
EXTT0=
EXTT1=
EXTT2=
EXTT3=
EXTT4=
EXTT5=
EXTT6=
EXTT7=
EXTT8=
EXTT9=
EXTT10=
PLAYORDER=
